<?xml version="1.0" encoding="utf-8"?>
<!-- Generator: Adobe Illustrator 28.1.0, SVG Export Plug-In . SVG Version: 6.00 Build 0)  -->
<svg version="1.1" id="레이어_1" xmlns="http://www.w3.org/2000/svg" xmlns:xlink="http://www.w3.org/1999/xlink" x="0px"
	 y="0px" viewBox="0 0 1024 1024" style="enable-background:new 0 0 1024 1024;" xml:space="preserve">
<style type="text/css">
	.st0{fill:none;stroke:#9966FF;stroke-width:50;stroke-miterlimit:10;}
	.st1{fill:#9966FF;stroke:#9966FF;stroke-width:50;stroke-miterlimit:10;}
</style>
<g>
	<path class="st0" d="M839.4,736.01c-40.4,51.44-34.54,220.54-88.12,252.93c-68.39,41.35-173.04-96.86-250.98-88.49
		c-119.51,12.84-214.26,149.26-316.47,78.1C42.71,880.3,212.96,743.1,204.21,585.52c-6.58-118.43-52.07-170.69-9.41-227.8
		c58.58-78.42,128.19-55.35,268.24-69.62C581.62,276.01,711.3,73.5,812.67,144.07c94.51,65.8,40.53,162.04,66.63,263.68
		c11.67,45.43,122.36,134.97,119.65,182.34C993.55,684.65,904.64,652.94,839.4,736.01z"/>
	<path class="st1" d="M736.76,631.82c-40.4,51.44-34.54,220.54-88.12,252.93c-68.39,41.35-173.04-96.86-250.98-88.49
		c-119.51,12.84-214.26,149.26-316.47,78.1c-141.12-98.25,29.13-235.45,20.38-393.04c-6.58-118.43-52.07-170.69-9.41-227.8
		c58.58-78.42,128.19-55.35,268.24-69.62c118.59-12.09,248.27-214.6,349.64-144.02c94.51,65.8,40.53,162.04,66.63,263.68
		C788.33,349,899.02,438.54,896.31,485.91C890.91,580.47,802,548.76,736.76,631.82z"/>
</g>
</svg>
